<svg width="201" height="209" viewBox="0 0 201 209" fill="none" xmlns="http://www.w3.org/2000/svg">
<path d="M5.27414 147.843C8.30565 142.434 12.5319 139.106 17.9529 137.858C23.3739 136.61 29.566 137.679 36.5292 141.067L58.9181 152.082L63.9915 141.364L49.6646 134.212C34.7453 126.671 23.8239 119.476 16.9004 112.628C9.97692 105.78 5.54878 98.3608 3.61603 90.3703C1.68327 82.3732 0.71365 71.2822 0.707031 57.0974C0.707031 42.7078 2.17308 31.4815 5.10531 23.4183C7.68052 15.7586 13.1777 9.42002 20.4052 5.77642C27.6862 2.11135 38.0317 0.275506 51.4419 0.268903C62.3897 0.268903 71.1699 1.75804 77.7823 4.73633C84.3947 7.71461 89.1207 11.7594 91.9602 16.8707C94.8984 22.387 96.3652 28.5646 96.2196 34.8097C96.2196 46.0361 94.5649 54.1521 91.2553 59.1577C87.9458 64.1634 83.0213 66.544 76.4817 66.2997C69.909 66.0553 61.3505 63.4997 50.8064 58.6327L36.559 52.0356L31.4557 62.7138L49.6646 70.7473C62.6975 76.5123 72.6261 83.4859 79.4503 91.6679C86.2745 99.8499 90.7754 108.412 92.9531 117.353C95.2391 127.162 96.3424 137.208 96.2394 147.278C96.2394 160.882 94.8462 172.148 92.0596 181.076C89.2729 190.004 84.5966 196.826 78.0305 201.541C71.4711 206.269 62.6148 208.627 51.4617 208.613C38.9319 208.613 28.8842 206.632 21.3187 202.67C13.7531 198.708 8.43137 193.696 5.35352 187.633C2.29395 181.692 0.707424 175.106 0.726908 168.426C0.720289 160.119 2.236 153.258 5.27414 147.843Z" fill="#CFD1BA"/>
<path d="M110.695 41.0105C114.382 25.8219 120.054 15.2262 127.712 9.22343C135.371 3.22064 145.766 0.219238 158.898 0.219238C168.747 0.219238 176.69 1.63244 182.726 4.45884C188.763 7.28524 193.267 12.2975 196.239 19.4955C199.218 26.7002 200.707 36.8502 200.707 49.9454C200.707 63.6415 199.118 73.9896 195.941 80.9895C192.764 87.9895 187.191 92.9027 179.222 95.7291C171.279 98.5621 159.54 99.9753 144.005 99.9687H137.145V111.855H144.005C159.52 111.855 171.259 113.146 179.222 115.728C187.184 118.311 192.758 122.851 195.941 129.349C199.118 135.847 200.707 145.399 200.707 158.006C200.707 171.312 199.218 181.611 196.239 188.901C193.261 196.192 188.756 201.303 182.726 204.235C176.71 207.167 168.767 208.63 158.898 208.623C145.759 208.623 135.364 205.698 127.712 199.847C120.061 193.996 114.388 183.648 110.695 168.803C107.015 153.964 105.175 132.895 105.175 105.595C105.175 77.7339 107.015 56.2057 110.695 41.0105Z" fill="#CFD1BA"/>
</svg>
